# xmcd
#
# Track frame offsets: 
#        150
#        17810
#        40288
#        61090
#        83110
#        97430
#        125108
#        140020
#        163315
#
# Disc length: 2470 seconds
#
# Revision: 2
# Processed by: cddbd v1.5.2PL0 Copyright (c) Steve Scherf et al.
# Submitted via: ExactAudioCopy v0.99pb5
#
DISCID=8409a409
DTITLE=Nord - Nord
DYEAR=1992
DGENRE=Rock
TTITLE0=Black Cat Woman
TTITLE1=Oh Well
TTITLE2=Teenage Anxiety
TTITLE3=Sensitive Kind
TTITLE4=Who Do You Love
TTITLE5=Day Of The Eagle
TTITLE6=Tin Soldier
TTITLE7=Bridge Of Sighs
TTITLE8=Fire And Water
EXTD=
EXTT0=
EXTT1=
EXTT2=
EXTT3=
EXTT4=
EXTT5=
EXTT6=
EXTT7=
EXTT8=
PLAYORDER=
